<svg height="512pt" viewBox="0 -39 512.00001 512" width="512pt" xmlns="http://www.w3.org/2000/svg"><path d="m388.347656 252.582031-11.59375-11.074219 28.980469-67.621093 15.882813-11.988281c25.042968 9.195312 37.886718 36.949218 28.691406 61.992187-9.195313 25.023437-36.929688 37.867187-61.960938 28.691406zm0 0" fill="#b8eaee"/><path d="m222.1875 251.167969h39.25v144.90625c0 10.671875-8.648438 19.320312-19.320312 19.320312h-.609376c-10.667968 0-19.320312-8.648437-19.320312-19.320312zm0 0" fill="#eaeae8"/><path d="m241.375 285.453125-18.144531-6.652344c-15.023438-5.523437-22.726563-22.175781-17.203125-37.199219 0-.003906 0-.003906 0-.003906l14.808594-32.023437 70.589843 25.492187-12.859375 33.171875c-5.515625 15.023438-22.167968 22.730469-37.191406 17.214844zm0 0" fill="#cbcbcb"/><path d="m118.675781 174.136719 39.957031-108.816407 262.980469 96.566407-39.960937 108.820312zm0 0" fill="#dbdbdb"/><path d="m120.878906 0-43.285156 117.886719 208.566406 76.597656 31.453125-29.609375 90.683594 33.296875 103.703125-53.265625zm0 0" fill="#85bc94"/><path d="m169.191406 120.644531 6.65625-18.136719 18.136719 6.660157-6.660156 18.136719zm0 0" fill="#cbcbcb"/><path d="m205.460938 133.964844 6.660156-18.136719 18.136718 6.65625-6.660156 18.136719zm0 0" fill="#dbdbdb"/><path d="m241.734375 147.289062 6.660156-18.136718 18.136719 6.660156-6.660156 18.136719zm0 0" fill="#cbcbcb"/><path d="m67.621094 338.113281h193.210937v38.640625h-193.210937zm0 0" fill="#dbdbdb"/><path d="m38.949219 405.734375v-96.601563c21.34375 0 38.644531 17.300782 38.644531 38.640626v19.320312c0 21.339844-17.300781 38.640625-38.644531 38.640625zm0 0" fill="#cbcbcb"/><path d="m0 280.152344h38.949219v154.566406h-38.949219zm0 0" fill="#c3c3c3"/></svg>